<svg xmlns="http://www.w3.org/2000/svg" xmlns:xlink="http://www.w3.org/1999/xlink" width="2000" zoomAndPan="magnify" viewBox="0 0 1500 1499.999933" height="2000" preserveAspectRatio="xMidYMid meet" version="1.0"><defs><g/><clipPath id="f76cc95925"><rect x="0" width="1274" y="0" height="565"/></clipPath></defs><g transform="matrix(1, 0, 0, 1, 114, 464)"><g clip-path="url(#f76cc95925)"><g fill="#2e2e2e" fill-opacity="1"><g transform="translate(0.785268, 433.628859)"><g><path d="M 142.421875 -275.015625 C 153.179688 -275.015625 163.160156 -273.785156 172.359375 -271.328125 C 181.566406 -268.867188 189.539062 -265.3125 196.28125 -260.65625 C 203.03125 -256.007812 208.316406 -250.269531 212.140625 -243.4375 C 215.960938 -236.601562 217.875 -228.8125 217.875 -220.0625 C 217.875 -215.144531 216.914062 -210.632812 215 -206.53125 C 213.09375 -202.4375 210.5 -198.929688 207.21875 -196.015625 C 203.9375 -193.097656 200.109375 -190.816406 195.734375 -189.171875 C 191.359375 -187.535156 186.710938 -186.71875 181.796875 -186.71875 C 176.515625 -186.71875 171.226562 -187.265625 165.9375 -188.359375 C 160.65625 -189.453125 155.367188 -190 150.078125 -190 C 144.796875 -190 139.238281 -189.128906 133.40625 -187.390625 C 127.570312 -185.660156 122.238281 -182.835938 117.40625 -178.921875 C 112.582031 -175.003906 108.578125 -169.945312 105.390625 -163.75 C 102.203125 -157.550781 100.609375 -150.078125 100.609375 -141.328125 C 100.609375 -127.484375 104.476562 -116.960938 112.21875 -109.765625 C 119.96875 -102.566406 130.398438 -98.96875 143.515625 -98.96875 C 148.984375 -98.96875 154.269531 -99.46875 159.375 -100.46875 C 164.476562 -101.46875 169.398438 -102.515625 174.140625 -103.609375 C 178.878906 -104.703125 183.476562 -105.75 187.9375 -106.75 C 192.40625 -107.75 196.644531 -108.25 200.65625 -108.25 C 206.851562 -108.25 212.046875 -107.066406 216.234375 -104.703125 C 220.429688 -102.335938 223.847656 -99.148438 226.484375 -95.140625 C 229.128906 -91.128906 231 -86.523438 232.09375 -81.328125 C 233.1875 -76.128906 233.734375 -70.707031 233.734375 -65.0625 C 233.734375 -53.03125 230.722656 -42.734375 224.703125 -34.171875 C 218.691406 -25.609375 210.898438 -18.546875 201.328125 -12.984375 C 191.765625 -7.421875 181.0625 -3.316406 169.21875 -0.671875 C 157.375 1.960938 145.710938 3.28125 134.234375 3.28125 C 119.285156 3.28125 105.796875 1.320312 93.765625 -2.59375 C 81.734375 -6.507812 71.070312 -11.835938 61.78125 -18.578125 C 52.488281 -25.328125 44.46875 -33.300781 37.71875 -42.5 C 30.976562 -51.707031 25.46875 -61.640625 21.1875 -72.296875 C 16.90625 -82.960938 13.710938 -94.128906 11.609375 -105.796875 C 9.515625 -117.460938 8.46875 -129.035156 8.46875 -140.515625 C 8.46875 -158.921875 11.066406 -176.234375 16.265625 -192.453125 C 21.460938 -208.671875 29.484375 -222.929688 40.328125 -235.234375 C 51.171875 -247.535156 65.019531 -257.238281 81.875 -264.34375 C 98.726562 -271.457031 118.910156 -275.015625 142.421875 -275.015625 Z M 142.421875 -275.015625 "/></g></g></g><g fill="#2e2e2e" fill-opacity="1"><g transform="translate(234.516923, 433.628859)"><g><path d="M 6.828125 -133.953125 C 6.828125 -151.265625 9.832031 -168.300781 15.84375 -185.0625 C 21.863281 -201.832031 30.660156 -216.78125 42.234375 -229.90625 C 53.804688 -243.03125 68.066406 -253.601562 85.015625 -261.625 C 101.960938 -269.644531 121.28125 -273.65625 142.96875 -273.65625 C 157.007812 -273.65625 169.816406 -272.195312 181.390625 -269.28125 C 192.960938 -266.363281 202.9375 -261.894531 211.3125 -255.875 C 219.695312 -249.863281 226.210938 -242.253906 230.859375 -233.046875 C 235.515625 -223.847656 237.84375 -212.960938 237.84375 -200.390625 C 237.84375 -188.359375 235.65625 -177.375 231.28125 -167.4375 C 226.90625 -157.507812 220.753906 -148.851562 212.828125 -141.46875 C 204.898438 -134.09375 195.375 -128.125 184.25 -123.5625 C 173.132812 -119.007812 160.832031 -116.09375 147.34375 -114.8125 C 140.0625 -114.082031 134.6875 -112.347656 131.21875 -109.609375 C 127.757812 -106.878906 126.03125 -103.785156 126.03125 -100.328125 C 126.03125 -96.503906 128.257812 -92.953125 132.71875 -89.671875 C 137.1875 -86.390625 143.613281 -84.75 152 -84.75 C 157.101562 -84.75 161.660156 -85.25 165.671875 -86.25 C 169.679688 -87.25 173.644531 -88.382812 177.5625 -89.65625 C 181.476562 -90.9375 185.625 -92.078125 190 -93.078125 C 194.375 -94.085938 199.382812 -94.59375 205.03125 -94.59375 C 211.769531 -94.59375 217.828125 -93.679688 223.203125 -91.859375 C 228.585938 -90.035156 233.191406 -87.484375 237.015625 -84.203125 C 240.847656 -80.921875 243.8125 -77.09375 245.90625 -72.71875 C 248 -68.34375 249.046875 -63.601562 249.046875 -58.5 C 249.046875 -53.757812 248.085938 -48.882812 246.171875 -43.875 C 244.265625 -38.863281 241.210938 -33.898438 237.015625 -28.984375 C 232.460938 -23.515625 227.039062 -18.957031 220.75 -15.3125 C 214.457031 -11.664062 207.757812 -8.75 200.65625 -6.5625 C 193.550781 -4.375 186.125 -2.820312 178.375 -1.90625 C 170.632812 -1 163.023438 -0.546875 155.546875 -0.546875 C 130.035156 -0.546875 107.9375 -4.375 89.25 -12.03125 C 70.570312 -19.6875 55.128906 -29.753906 42.921875 -42.234375 C 30.710938 -54.722656 21.644531 -68.9375 15.71875 -84.875 C 9.789062 -100.820312 6.828125 -117.179688 6.828125 -133.953125 Z M 109.078125 -185.890625 C 109.078125 -180.609375 110.804688 -176.328125 114.265625 -173.046875 C 117.734375 -169.765625 124.207031 -168.125 133.6875 -168.125 C 137.875 -168.125 142.15625 -168.578125 146.53125 -169.484375 C 150.90625 -170.398438 154.867188 -171.628906 158.421875 -173.171875 C 161.972656 -174.722656 164.890625 -176.5 167.171875 -178.5 C 169.453125 -180.507812 170.59375 -182.703125 170.59375 -185.078125 C 170.40625 -188.898438 169.265625 -192.359375 167.171875 -195.453125 C 165.078125 -198.554688 162.390625 -201.203125 159.109375 -203.390625 C 155.828125 -205.578125 152.222656 -207.257812 148.296875 -208.4375 C 144.378906 -209.625 140.421875 -210.21875 136.421875 -210.21875 C 132.953125 -210.21875 129.53125 -209.765625 126.15625 -208.859375 C 122.789062 -207.953125 119.875 -206.492188 117.40625 -204.484375 C 114.945312 -202.484375 112.941406 -199.929688 111.390625 -196.828125 C 109.847656 -193.734375 109.078125 -190.085938 109.078125 -185.890625 Z M 109.078125 -185.890625 "/></g></g></g><g fill="#2e2e2e" fill-opacity="1"><g transform="translate(486.017601, 433.628859)"><g><path d="M 18.59375 -144.34375 C 18.59375 -162.019531 18.910156 -179.195312 19.546875 -195.875 C 20.179688 -212.550781 21.226562 -227.722656 22.6875 -241.390625 C 23.238281 -247.398438 24.878906 -252.316406 27.609375 -256.140625 C 30.347656 -259.972656 33.765625 -263.070312 37.859375 -265.4375 C 41.960938 -267.8125 46.566406 -269.453125 51.671875 -270.359375 C 56.773438 -271.273438 61.96875 -271.734375 67.25 -271.734375 C 72.164062 -271.734375 77.085938 -271.460938 82.015625 -270.921875 C 90.398438 -269.828125 96.410156 -267.640625 100.046875 -264.359375 C 103.691406 -261.078125 106.195312 -257.613281 107.5625 -253.96875 C 108.9375 -250.320312 109.894531 -247.085938 110.4375 -244.265625 C 110.988281 -241.441406 112.445312 -240.03125 114.8125 -240.03125 C 116.632812 -240.03125 119.550781 -241.53125 123.5625 -244.53125 C 127.570312 -247.539062 132.582031 -250.820312 138.59375 -254.375 C 144.613281 -257.925781 151.585938 -261.207031 159.515625 -264.21875 C 167.441406 -267.226562 176.234375 -268.734375 185.890625 -268.734375 C 199.378906 -268.734375 212.320312 -265.90625 224.71875 -260.25 C 237.113281 -254.601562 247.5 -246.492188 255.875 -235.921875 C 262.070312 -228.265625 267.128906 -219.832031 271.046875 -210.625 C 274.972656 -201.425781 278.070312 -191.816406 280.34375 -181.796875 C 282.625 -171.773438 284.171875 -161.523438 284.984375 -151.046875 C 285.804688 -140.566406 286.21875 -130.222656 286.21875 -120.015625 C 286.21875 -113.265625 286.082031 -106.703125 285.8125 -100.328125 C 285.539062 -93.953125 285.222656 -87.753906 284.859375 -81.734375 C 284.492188 -75.898438 284.265625 -69.976562 284.171875 -63.96875 C 284.078125 -57.957031 283.710938 -51.988281 283.078125 -46.0625 C 282.441406 -40.132812 281.347656 -34.347656 279.796875 -28.703125 C 278.253906 -23.054688 275.84375 -17.769531 272.5625 -12.84375 C 268.550781 -6.832031 262.441406 -2.234375 254.234375 0.953125 C 246.035156 4.140625 237.5625 5.734375 228.8125 5.734375 C 219.15625 5.734375 210.316406 3.863281 202.296875 0.125 C 194.273438 -3.601562 188.988281 -9.566406 186.4375 -17.765625 C 184.800781 -23.054688 183.707031 -28.296875 183.15625 -33.484375 C 182.613281 -38.679688 182.34375 -43.921875 182.34375 -49.203125 C 182.34375 -58.503906 182.84375 -69.164062 183.84375 -81.1875 C 184.84375 -93.21875 185.34375 -105.613281 185.34375 -118.375 C 185.34375 -135.320312 182.472656 -148.078125 176.734375 -156.640625 C 170.992188 -165.210938 163.203125 -169.5 153.359375 -169.5 C 149.535156 -169.5 145.800781 -168.722656 142.15625 -167.171875 C 138.507812 -165.617188 135.179688 -163.429688 132.171875 -160.609375 C 129.171875 -157.785156 126.664062 -154.367188 124.65625 -150.359375 C 122.65625 -146.347656 121.378906 -141.882812 120.828125 -136.96875 C 120.460938 -132.226562 120.1875 -127.578125 120 -123.015625 C 119.820312 -118.460938 119.734375 -113.816406 119.734375 -109.078125 C 119.734375 -103.242188 119.820312 -97.546875 120 -91.984375 C 120.1875 -86.429688 120.28125 -80.738281 120.28125 -74.90625 C 120.28125 -66.15625 119.914062 -57.40625 119.1875 -48.65625 C 118.457031 -39.90625 117.09375 -30.976562 115.09375 -21.875 C 114.175781 -17.863281 112.257812 -14.125 109.34375 -10.65625 C 106.4375 -7.195312 102.929688 -4.144531 98.828125 -1.5 C 94.722656 1.132812 90.207031 3.179688 85.28125 4.640625 C 80.363281 6.097656 75.265625 6.828125 69.984375 6.828125 C 64.703125 6.828125 59.460938 5.914062 54.265625 4.09375 C 49.066406 2.269531 44.375 -0.640625 40.1875 -4.640625 C 36 -8.648438 32.398438 -13.890625 29.390625 -20.359375 C 26.378906 -26.835938 24.328125 -34.722656 23.234375 -44.015625 C 21.597656 -58.234375 20.414062 -73.953125 19.6875 -91.171875 C 18.957031 -108.390625 18.59375 -126.113281 18.59375 -144.34375 Z M 18.59375 -144.34375 "/></g></g></g><g fill="#2e2e2e" fill-opacity="1"><g transform="translate(785.90487, 433.628859)"><g><path d="M 142.421875 -275.015625 C 153.179688 -275.015625 163.160156 -273.785156 172.359375 -271.328125 C 181.566406 -268.867188 189.539062 -265.3125 196.28125 -260.65625 C 203.03125 -256.007812 208.316406 -250.269531 212.140625 -243.4375 C 215.960938 -236.601562 217.875 -228.8125 217.875 -220.0625 C 217.875 -215.144531 216.914062 -210.632812 215 -206.53125 C 213.09375 -202.4375 210.5 -198.929688 207.21875 -196.015625 C 203.9375 -193.097656 200.109375 -190.816406 195.734375 -189.171875 C 191.359375 -187.535156 186.710938 -186.71875 181.796875 -186.71875 C 176.515625 -186.71875 171.226562 -187.265625 165.9375 -188.359375 C 160.65625 -189.453125 155.367188 -190 150.078125 -190 C 144.796875 -190 139.238281 -189.128906 133.40625 -187.390625 C 127.570312 -185.660156 122.238281 -182.835938 117.40625 -178.921875 C 112.582031 -175.003906 108.578125 -169.945312 105.390625 -163.75 C 102.203125 -157.550781 100.609375 -150.078125 100.609375 -141.328125 C 100.609375 -127.484375 104.476562 -116.960938 112.21875 -109.765625 C 119.96875 -102.566406 130.398438 -98.96875 143.515625 -98.96875 C 148.984375 -98.96875 154.269531 -99.46875 159.375 -100.46875 C 164.476562 -101.46875 169.398438 -102.515625 174.140625 -103.609375 C 178.878906 -104.703125 183.476562 -105.75 187.9375 -106.75 C 192.40625 -107.75 196.644531 -108.25 200.65625 -108.25 C 206.851562 -108.25 212.046875 -107.066406 216.234375 -104.703125 C 220.429688 -102.335938 223.847656 -99.148438 226.484375 -95.140625 C 229.128906 -91.128906 231 -86.523438 232.09375 -81.328125 C 233.1875 -76.128906 233.734375 -70.707031 233.734375 -65.0625 C 233.734375 -53.03125 230.722656 -42.734375 224.703125 -34.171875 C 218.691406 -25.609375 210.898438 -18.546875 201.328125 -12.984375 C 191.765625 -7.421875 181.0625 -3.316406 169.21875 -0.671875 C 157.375 1.960938 145.710938 3.28125 134.234375 3.28125 C 119.285156 3.28125 105.796875 1.320312 93.765625 -2.59375 C 81.734375 -6.507812 71.070312 -11.835938 61.78125 -18.578125 C 52.488281 -25.328125 44.46875 -33.300781 37.71875 -42.5 C 30.976562 -51.707031 25.46875 -61.640625 21.1875 -72.296875 C 16.90625 -82.960938 13.710938 -94.128906 11.609375 -105.796875 C 9.515625 -117.460938 8.46875 -129.035156 8.46875 -140.515625 C 8.46875 -158.921875 11.066406 -176.234375 16.265625 -192.453125 C 21.460938 -208.671875 29.484375 -222.929688 40.328125 -235.234375 C 51.171875 -247.535156 65.019531 -257.238281 81.875 -264.34375 C 98.726562 -271.457031 118.910156 -275.015625 142.421875 -275.015625 Z M 142.421875 -275.015625 "/></g></g></g><g fill="#2e2e2e" fill-opacity="1"><g transform="translate(1019.636525, 433.628859)"><g><path d="M 6.828125 -133.953125 C 6.828125 -151.265625 9.832031 -168.300781 15.84375 -185.0625 C 21.863281 -201.832031 30.660156 -216.78125 42.234375 -229.90625 C 53.804688 -243.03125 68.066406 -253.601562 85.015625 -261.625 C 101.960938 -269.644531 121.28125 -273.65625 142.96875 -273.65625 C 157.007812 -273.65625 169.816406 -272.195312 181.390625 -269.28125 C 192.960938 -266.363281 202.9375 -261.894531 211.3125 -255.875 C 219.695312 -249.863281 226.210938 -242.253906 230.859375 -233.046875 C 235.515625 -223.847656 237.84375 -212.960938 237.84375 -200.390625 C 237.84375 -188.359375 235.65625 -177.375 231.28125 -167.4375 C 226.90625 -157.507812 220.753906 -148.851562 212.828125 -141.46875 C 204.898438 -134.09375 195.375 -128.125 184.25 -123.5625 C 173.132812 -119.007812 160.832031 -116.09375 147.34375 -114.8125 C 140.0625 -114.082031 134.6875 -112.347656 131.21875 -109.609375 C 127.757812 -106.878906 126.03125 -103.785156 126.03125 -100.328125 C 126.03125 -96.503906 128.257812 -92.953125 132.71875 -89.671875 C 137.1875 -86.390625 143.613281 -84.75 152 -84.75 C 157.101562 -84.75 161.660156 -85.25 165.671875 -86.25 C 169.679688 -87.25 173.644531 -88.382812 177.5625 -89.65625 C 181.476562 -90.9375 185.625 -92.078125 190 -93.078125 C 194.375 -94.085938 199.382812 -94.59375 205.03125 -94.59375 C 211.769531 -94.59375 217.828125 -93.679688 223.203125 -91.859375 C 228.585938 -90.035156 233.191406 -87.484375 237.015625 -84.203125 C 240.847656 -80.921875 243.8125 -77.09375 245.90625 -72.71875 C 248 -68.34375 249.046875 -63.601562 249.046875 -58.5 C 249.046875 -53.757812 248.085938 -48.882812 246.171875 -43.875 C 244.265625 -38.863281 241.210938 -33.898438 237.015625 -28.984375 C 232.460938 -23.515625 227.039062 -18.957031 220.75 -15.3125 C 214.457031 -11.664062 207.757812 -8.75 200.65625 -6.5625 C 193.550781 -4.375 186.125 -2.820312 178.375 -1.90625 C 170.632812 -1 163.023438 -0.546875 155.546875 -0.546875 C 130.035156 -0.546875 107.9375 -4.375 89.25 -12.03125 C 70.570312 -19.6875 55.128906 -29.753906 42.921875 -42.234375 C 30.710938 -54.722656 21.644531 -68.9375 15.71875 -84.875 C 9.789062 -100.820312 6.828125 -117.179688 6.828125 -133.953125 Z M 109.078125 -185.890625 C 109.078125 -180.609375 110.804688 -176.328125 114.265625 -173.046875 C 117.734375 -169.765625 124.207031 -168.125 133.6875 -168.125 C 137.875 -168.125 142.15625 -168.578125 146.53125 -169.484375 C 150.90625 -170.398438 154.867188 -171.628906 158.421875 -173.171875 C 161.972656 -174.722656 164.890625 -176.5 167.171875 -178.5 C 169.453125 -180.507812 170.59375 -182.703125 170.59375 -185.078125 C 170.40625 -188.898438 169.265625 -192.359375 167.171875 -195.453125 C 165.078125 -198.554688 162.390625 -201.203125 159.109375 -203.390625 C 155.828125 -205.578125 152.222656 -207.257812 148.296875 -208.4375 C 144.378906 -209.625 140.421875 -210.21875 136.421875 -210.21875 C 132.953125 -210.21875 129.53125 -209.765625 126.15625 -208.859375 C 122.789062 -207.953125 119.875 -206.492188 117.40625 -204.484375 C 114.945312 -202.484375 112.941406 -199.929688 111.390625 -196.828125 C 109.847656 -193.734375 109.078125 -190.085938 109.078125 -185.890625 Z M 109.078125 -185.890625 "/></g></g></g></g></g></svg>